<svg xmlns="http://www.w3.org/2000/svg" style="display: none;">
    <symbol id="icon-angle" viewBox="0 0 32 32">
      <path d="M12.792 15.233l-.754.754 6.035 6.035.754-.754-5.28-5.28L18.8 10.73l-.754-.753-3.013 3.013z"/>
    </symbol>
    <symbol id="icon-back" viewBox="0 0 477.175 477.175">
      <path d="M145.188 238.575l215.5-215.5c5.3-5.3 5.3-13.8 0-19.1s-13.8-5.3-19.1 0l-225.1 225.1c-5.3 5.3-5.3 13.8 0 19.1l225.1 225c2.6 2.6 6.1 4 9.5 4s6.9-1.3 9.5-4c5.3-5.3 5.3-13.8 0-19.1l-215.4-215.5z"/>
    </symbol>
    <symbol id="icon-botmail" viewBox="0 0 52.4 52.4">
      <style>.st0{fill:#FFFFFF;}</style><path id="XMLID_73_" class="st0" d="M26.2 0C11.7 0 0 11.7 0 26.2s11.7 26.2 26.2 26.2 26.2-11.7 26.2-26.2S40.7 0 26.2 0zm0 50.8c-13.6 0-24.6-11-24.6-24.6s11-24.6 24.6-24.6c13.6 0 24.6 11 24.6 24.6s-11 24.6-24.6 24.6z"/><path id="XMLID_67_" class="st0" d="M37.7 17.2h-23c-.9 0-1.6.7-1.6 1.6v14.7c0 .9.7 1.6 1.6 1.6h22.9c.9 0 1.6-.7 1.6-1.6V18.8c.1-.9-.6-1.6-1.5-1.6zm-1.5 1.6l-10 9.8-9.9-9.8h19.9zM14.7 33.6V19.7l7.9 7.9-6.2 6.1h-1.7zm4.1 0l5-4.9 1.3 1.3c.6.6 1.7.6 2.3 0l1.3-1.3 5 4.8H18.8zm18.9 0h-1.6l-6.2-6.1 7.8-7.8v13.9z"/>
    </symbol>
    <symbol id="icon-botphone" viewBox="0 0 52.4 52.4">
      <style>.st0{fill:#FFFFFF;}</style><path id="XMLID_75_" class="st0" d="M26.2 0C11.8 0 0 11.7 0 26.2s11.7 26.2 26.2 26.2 26.2-11.7 26.2-26.2S40.7 0 26.2 0zm0 50.8c-13.6 0-24.6-11-24.6-24.6 0-13.6 11-24.6 24.6-24.6 13.6 0 24.6 11 24.6 24.6 0 13.6-11 24.6-24.6 24.6z"/><path id="XMLID_72_" class="st0" d="M31.1 13.1h-9.8c-1.8 0-3.3 1.5-3.3 3.3V36c0 1.8 1.5 3.3 3.3 3.3h9.8c1.8 0 3.3-1.5 3.3-3.3V16.4c0-1.8-1.4-3.3-3.3-3.3zM32.8 36c0 .9-.7 1.6-1.6 1.6h-9.8c-.9 0-1.6-.7-1.6-1.6V16.4c0-.9.7-1.6 1.6-1.6h9.8c.9 0 1.6.7 1.6 1.6V36z"/><path id="XMLID_69_" class="st0" d="M26.2 31.1c-1.4 0-2.5 1.1-2.5 2.5s1.1 2.5 2.5 2.5 2.5-1.1 2.5-2.5-1.1-2.5-2.5-2.5zm0 3.3c-.5 0-.8-.4-.8-.8 0-.5.4-.8.8-.8.5 0 .8.4.8.8.1.4-.3.8-.8.8z"/><path id="XMLID_67_" class="st0" d="M28.7 16.4h-4.9c-.5 0-.8.4-.8.8 0 .5.4.8.8.8h4.9c.5 0 .8-.4.8-.8 0-.5-.4-.8-.8-.8z"/>
    </symbol>
    <symbol id="icon-bottom" viewBox="0 0 26 32">
      <path d="M0 16c0 7.243 5.87 13.113 13.113 13.113S26.226 23.243 26.226 16c0-7.242-5.87-13.113-13.113-13.113S0 8.757 0 16zm25.177 0c0 6.652-5.412 12.064-12.064 12.064S1.05 22.652 1.05 16 6.46 3.936 13.112 3.936 25.177 9.348 25.177 16z"/><path d="M7.475 16.796l-.742.742 6.38 6.38 6.377-6.38-.742-.742-5.112 5.112V9.18h-1.05V21.91z"/>
    </symbol>
    <symbol id="icon-calculator" viewBox="0 0 32 32">
      <path d="M8.536 10.136h14.928V5.87H8.536v4.266zm1.066-3.2h12.795V9.07H9.602V6.935z"/><path d="M23.464 3.205H8.536c-1.178 0-2.133.955-2.133 2.133v21.325c0 1.178.955 2.133 2.133 2.133h14.928c1.178 0 2.133-.955 2.133-2.133V5.338c0-1.178-.955-2.132-2.133-2.132zm1.066 23.458c0 .588-.478 1.066-1.066 1.066H8.536c-.588 0-1.066-.48-1.066-1.067V5.338c0-.587.48-1.066 1.066-1.066h14.928c.588 0 1.066.48 1.066 1.066v21.325z"/><path d="M9.602 14.934v-3.2H8.536V16H12.8v-1.066h-1.065zM9.602 20.265v-3.2H8.536v4.266H12.8v-1.065h-1.065zM9.602 25.596v-3.2H8.536v4.266H12.8v-1.066h-1.065zM14.934 14.934v-3.2h-1.066V16h4.265v-1.066h-1.066zM20.265 14.934v-3.2H19.2V16h4.264v-1.066h-1.066zM14.934 20.265v-3.2h-1.066v4.266h4.265v-1.065h-1.066zM14.934 25.596v-3.2h-1.066v4.266h4.265v-1.066h-1.066zM20.265 25.596v-8.53H19.2v9.596h4.264v-1.066h-1.066z"/>
    </symbol>
    <symbol id="icon-call" viewBox="0 0 32 32">
      <path d="M23.407 30.394c-2.43 0-8.34-3.11-13.303-9.783-4.64-6.24-6.898-10.75-6.898-13.784 0-2.39 1.65-3.53 2.536-4.142l.22-.153c.978-.7 2.5-.926 3.085-.926 1.024 0 1.455.6 1.716 1.12.222.443 2.06 4.39 2.247 4.882.286.755.192 1.855-.692 2.488l-.155.108c-.44.304-1.255.87-1.368 1.557-.055.333.057.683.342 1.067 1.423 1.918 5.968 7.55 6.787 8.314.642.6 1.455.686 2.01.22.572-.484.827-.77.83-.773l.058-.057c.048-.04.496-.396 1.228-.396.528 0 1.065.182 1.596.54 1.378.932 4.487 3.012 4.487 3.012l.05.038c.398.34.973 1.323.302 2.6-.695 1.328-2.85 4.067-5.08 4.067zM9.047 2.672c-.506 0-1.747.213-2.467.728l-.232.162c-.827.572-2.076 1.435-2.076 3.265 0 2.797 2.188 7.098 6.687 13.15 4.913 6.608 10.53 9.352 12.446 9.352 1.63 0 3.497-2.277 4.135-3.495.393-.748.072-1.17-.04-1.284-.36-.24-3.163-2.116-4.452-2.987-.35-.238-.688-.358-1-.358-.282 0-.468.1-.53.14-.105.11-.39.405-.9.833-.95.8-2.398.704-3.424-.254-.923-.862-5.585-6.666-6.916-8.46-.46-.62-.64-1.25-.538-1.876.187-1.133 1.245-1.866 1.813-2.26l.142-.1c.508-.362.4-1.02.316-1.24-.156-.415-1.972-4.323-2.202-4.782-.188-.376-.336-.533-.764-.533z"/>
    </symbol>
    <symbol id="icon-camera" viewBox="0 0 32 32">
      <path d="M27.195 9.07h-4.41L20.22 6.5l-.007-.01-.005-.003c-.385-.38-.914-.616-1.5-.616h-5.33c-.62 0-1.172.27-1.562.69l-.002-.006-2.51 2.516h-4.5c-1.18 0-2.133.955-2.133 2.133v12.795c0 1.178.956 2.133 2.133 2.133h22.39c1.18 0 2.134-.954 2.134-2.132V11.203c0-1.178-.955-2.133-2.133-2.133zm1.067 14.927c0 .587-.48 1.066-1.067 1.066H4.805c-.59 0-1.067-.48-1.067-1.066V11.202c0-.588.48-1.066 1.066-1.066h4.942L11.35 8.53l.026.077L12.6 7.283c.207-.224.484-.347.78-.347h5.33c.282 0 .548.11.757.316l2.876 2.883h4.852c.588 0 1.067.478 1.067 1.066v12.796z"/><path d="M16 10.136c-3.828 0-6.93 3.102-6.93 6.93s3.102 6.932 6.93 6.932 6.93-3.104 6.93-6.932-3.102-6.93-6.93-6.93zm0 12.795c-3.234 0-5.864-2.63-5.864-5.864s2.63-5.863 5.864-5.863 5.864 2.63 5.864 5.863c0 3.234-2.63 5.865-5.864 5.865z"/><path d="M16 12.268c-2.65 0-4.798 2.147-4.798 4.797s2.148 4.8 4.798 4.8 4.798-2.15 4.798-4.8S18.65 12.268 16 12.268zm0 8.53c-2.058 0-3.732-1.675-3.732-3.733s1.674-3.73 3.732-3.73 3.732 1.672 3.732 3.73-1.674 3.733-3.732 3.733z"/>
    </symbol>
    <symbol id="icon-cash" viewBox="0 0 29 32">
      <path d="M16.784 10.755c-1.737 0-3.147 1.41-3.147 3.147s1.41 3.148 3.147 3.148c1.74 0 3.147-1.41 3.147-3.148s-1.408-3.147-3.146-3.147zm0 5.245c-1.156 0-2.098-.94-2.098-2.1s.94-2.097 2.098-2.097 2.098.94 2.098 2.098-.94 2.1-2.098 2.1z"/><path d="M4.196 6.034V21.77h25.176V6.033H4.196zm24.128 3.55V20.72H5.246V7.083h23.078v2.5z"/><path d="M23.746 22.82h-20.6V8.132H2.1v15.735h25.177v-1.05h-1.05z"/><path d="M21.648 24.917h-20.6V10.23H0v15.736h25.177v-1.05h-1.05zM6.82 8.165h3.146v1.05H6.82v-1.05z"/><path d="M6.82 18.623h3.146v1.05H6.82v-1.05zM23.603 8.165h3.147v1.05h-3.147v-1.05zM23.603 18.623h3.147v1.05h-3.147v-1.05z"/>
    </symbol>
    <symbol id="icon-chat" viewBox="0 0 32 32">
      <path d="M21.33 10.67V2.67H2.673v14.394h7.997v7.997H21.73l4.265 4.264h.665v-4.264h2.666V10.67H21.33zM3.74 16V3.738h16.527v6.93H10.67V16H3.737zm24.524 7.997h-2.666v3.422l-3.423-3.423h-10.44V11.735h16.528v12.262z"/>
    </symbol>
    <symbol id="icon-check" viewBox="0 0 32 32">
      <path d="M16 2.672C8.64 2.672 2.672 8.64 2.672 16S8.64 29.328 16 29.328c7.36 0 13.328-5.967 13.328-13.328S23.36 2.672 16 2.672zm0 25.59c-6.76 0-12.262-5.5-12.262-12.262S9.238 3.738 16 3.738c6.76 0 12.262 5.5 12.262 12.262S22.762 28.262 16 28.262z"/><path d="M22.667 11.24l-8.56 8.3-2.997-2.998c-.312-.312-.818-.312-1.13 0s-.313.818 0 1.13l3.554 3.556c.156.156.36.234.565.234.2 0 .4-.075.555-.225l9.124-8.848c.316-.31.324-.815.017-1.132-.31-.318-.814-.325-1.13-.018z"/>
    </symbol>
    <symbol id="icon-comment" viewBox="0 0 32 32">
      <path d="M26.664 4.82H5.336c-1.178 0-2.132.955-2.132 2.133V20.82c0 1.18.955 2.134 2.132 2.134h14.968l4.226 4.226v-4.226h2.134c1.178 0 2.133-.955 2.133-2.133V6.954c0-1.178-.955-2.133-2.133-2.133zm1.066 16c0 .59-.48 1.067-1.066 1.067h-3.2v2.718l-2.718-2.718H5.336c-.588 0-1.066-.478-1.066-1.066V6.954c0-.588.48-1.066 1.066-1.066h21.328c.588 0 1.066.478 1.066 1.066V20.82z"/><path d="M16 12.824c-.59 0-1.066.478-1.066 1.066s.477 1.066 1.066 1.066 1.066-.477 1.066-1.066c0-.588-.477-1.066-1.066-1.066zM20.265 12.824c-.59 0-1.066.478-1.066 1.066s.476 1.066 1.065 1.066 1.066-.477 1.066-1.066c0-.588-.476-1.066-1.065-1.066zM11.835 12.824c-.59 0-1.066.478-1.066 1.066s.476 1.066 1.065 1.066S12.9 14.48 12.9 13.89c0-.588-.476-1.066-1.065-1.066z"/>
    </symbol>
    <symbol id="icon-compass" viewBox="0 0 52.4 52.4">
      <style>.st0{fill:#FFFFFF;}</style><path class="st0" d="M26.2 0C11.7 0 0 11.7 0 26.2s11.7 26.2 26.2 26.2 26.2-11.7 26.2-26.2S40.7 0 26.2 0zm0 50.8c-13.6 0-24.6-11-24.6-24.6 0-13.6 11-24.6 24.6-24.6 13.6 0 24.6 11 24.6 24.6 0 13.6-11 24.6-24.6 24.6z"/><path class="st0" d="M30.1 30.1l6.6-14.4-14.4 6.6v.1h-.1l-6.6 14.4L30 30.2l.1-.1zm-12.2 4.4l4.4-10.1 5.7 5.7-10.1 4.4z"/>
    </symbol>
    <symbol id="icon-corner" viewBox="-306 227.8 26 27.2">
      <style>.st0{fill:#E7E9E8;stroke:#5DAFDD;stroke-linejoin:round;stroke-miterlimit:10;}</style><path id="XMLID_2_" class="st0" d="M-280.4 228.2l-25 26 25-10"/>
    </symbol>
    <symbol id="icon-culture" viewBox="0 0 32 32">
      <path d="M26.995 12.046h4.258L15.796 2.894.746 12.046h3.858V28.04H2.472v1.066h26.656V28.04h-2.133V12.046zM4.553 10.98l11.25-6.842L27.36 10.98H4.55zM5.67 28.04V12.046h3.2V28.04h-3.2zm4.265 0V12.046h3.2V28.04h-3.2zm4.265 0V12.046h3.2V28.04h-3.2zm4.265 0V12.046h3.2V28.04h-3.2zm4.265 0V12.046h3.2V28.04h-3.2z"/>
    </symbol>
    <symbol id="icon-cup" viewBox="0 0 32 32">
      <path d="M28.262 2.675c-.04 0-.075.01-.113.01h-3.086v-.01l-21.212.01c-.04 0-.075-.01-.114-.01-1.178 0-2.132.955-2.132 2.133 0 .592.242 1.128.632 1.514l4.7 4.7v-.35c0 4.826 3.773 8.76 8.53 9.037v8.55H11.2v1.066h9.596V28.26h-4.265v-8.55c4.756-.278 8.53-4.212 8.53-9.037v.348l4.7-4.698c.39-.386.63-.92.63-1.514 0-1.178-.954-2.132-2.132-2.132zM6.937 9.512l-3.95-3.95c-.203-.2-.315-.47-.315-.755 0-.573.454-1.042 1.023-1.065l.1.01h3.142v5.76zm17.06 1.16c0 4.41-3.588 7.997-7.997 7.997S8.003 15.08 8.003 10.67v-6.93h15.994v6.93zm5.015-5.11l-3.95 3.95v-5.76l3.144-.002c.034-.002.067-.005.1-.01.567.024 1.022.493 1.022 1.066 0 .286-.113.554-.316.756z"/>
    </symbol>
    <symbol id="icon-diamond" viewBox="0 0 28 32">
      <path d="M27.467 10.667L21.174 3.2h-14.4L.48 10.667 0 11.2l.428.533L13.975 28.8l13.973-17.6-.48-.533zm-1.387 0H15.36l5.333-6.347 5.387 6.347zm-12.16 0l-5.547-6.4H19.36l-5.44 6.4zm-6.773-6.24l5.387 6.24H1.867l5.28-6.24zm6.293 7.306V26.4L1.76 11.733h11.68zM14.507 26.4V11.733h11.627L14.507 26.4z"/>
    </symbol>
    <symbol id="icon-edit" viewBox="0 0 32 32">
      <path d="M28.262 5.87c0-1.472-1.194-2.665-2.666-2.665S22.93 4.398 22.93 5.87c0 1.29.916 2.365 2.133 2.612v18.18h1.066V8.482c1.216-.247 2.132-1.323 2.132-2.612zm-2.666 1.6c-.882 0-1.6-.717-1.6-1.6s.718-1.598 1.6-1.598c.882 0 1.6.717 1.6 1.6s-.718 1.598-1.6 1.598zM6.937 23.517V5.337H5.87v18.18c-1.216.247-2.13 1.322-2.13 2.612 0 1.47 1.193 2.665 2.665 2.665S9.07 27.6 9.07 26.13c0-1.29-.915-2.366-2.132-2.613zm-.533 4.212c-.882 0-1.6-.718-1.6-1.6s.718-1.6 1.6-1.6 1.6.718 1.6 1.6-.718 1.6-1.6 1.6zM16.533 13.388v-8.05h-1.066v8.05c-1.217.247-2.133 1.323-2.133 2.612s.916 2.365 2.133 2.612v8.05h1.066v-8.05c1.217-.247 2.133-1.323 2.133-2.612s-.916-2.365-2.133-2.612zM16 17.598c-.882 0-1.6-.716-1.6-1.598s.718-1.6 1.6-1.6 1.6.718 1.6 1.6-.718 1.6-1.6 1.6z"/>
    </symbol>
    <symbol id="icon-help2" viewBox="0 0 32 32">
      <path d="M16 3.205C8.934 3.205 3.205 8.933 3.205 16S8.935 28.794 16 28.795c7.067 0 12.795-5.73 12.795-12.795S23.065 3.205 16 3.205zm0 18.66c-3.234 0-5.864-2.632-5.864-5.865s2.63-5.864 5.864-5.864 5.864 2.63 5.864 5.864-2.63 5.864-5.865 5.864zm6.395-8.538l4.028-2.693c.832 1.61 1.305 3.433 1.305 5.366 0 1.91-.46 3.71-1.273 5.305l-4.035-2.7c.327-.804.51-1.682.51-2.605 0-.948-.19-1.85-.534-2.673zm3.495-3.62l-3.99 2.67c-.58-.943-1.377-1.734-2.325-2.306l2.67-3.99c1.465.926 2.71 2.167 3.644 3.63zM21.316 5.55l-2.698 4.034c-.808-.33-1.69-.515-2.617-.515s-1.81.184-2.617.514L10.685 5.55c1.597-.816 3.402-1.28 5.315-1.28s3.72.464 5.316 1.28zm-11.56.528l2.67 3.992c-.95.574-1.748 1.367-2.33 2.31l-3.99-2.668c.934-1.464 2.182-2.707 3.65-3.634zm-4.182 4.56l4.03 2.695c-.344.822-.534 1.722-.534 2.667 0 .92.183 1.797.51 2.6l-4.037 2.7c-.81-1.594-1.27-3.394-1.27-5.3 0-1.93.472-3.753 1.303-5.36zm.495 11.59l3.99-2.668c.577.96 1.378 1.766 2.332 2.35l-2.67 3.99C8.25 24.963 7 23.707 6.07 22.23zm4.58 4.204l2.695-4.03c.818.34 1.713.53 2.654.53.94 0 1.838-.19 2.656-.53l2.695 4.03c-1.605.827-3.423 1.297-5.35 1.297s-3.745-.47-5.35-1.298zm11.628-.533l-2.67-3.992c.953-.583 1.752-1.387 2.328-2.344l3.992 2.67c-.93 1.475-2.18 2.73-3.65 3.665z"/>
    </symbol>
    <symbol id="icon-home" viewBox="0 0 32 32">
      <path d="M16 2.672l-5.33 5.33V5.87H6.403v6.398L2.65 16.023l.753.754L16 4.18l12.597 12.597.754-.754L16 2.673zM7.47 6.937h2.132V9.07L7.47 11.2V6.937z"/><path d="M6.404 16.533v12.795h7.464v-7.464h4.265v7.464h7.464V16.533L16 6.937l-9.595 9.596zm18.126 11.73H19.2v-7.465h-6.4v7.464H7.47V16.975L16 8.445l8.53 8.53v11.287z"/>
    </symbol>
    <symbol id="icon-iconsearch" viewBox="0 0 47.9 47.9">
      <style>.st0{fill:#0C0404;}</style><path id="XMLID_5_" class="st0" d="M24 0C10.7 0 0 10.7 0 24c0 13.2 10.7 24 24 24 13.2 0 24-10.7 24-24-.1-13.3-10.8-24-24-24zm0 46.4c-12.4 0-22.5-10-22.5-22.4C1.5 11.6 11.6 1.5 24 1.5S46.5 11.6 46.5 24C46.4 36.4 36.4 46.4 24 46.4z"/><path id="XMLID_2_" class="st0" d="M34.2 32.5L30 28.2c.9-1.3 1.5-2.9 1.5-4.6 0-4.3-3.5-7.9-7.9-7.9-4.3 0-7.9 3.5-7.9 7.9 0 4.3 3.5 7.9 7.9 7.9 2.1 0 4-.8 5.4-2.2l4.2 4.2c.3.3.7.3 1 0 .3-.3.3-.8 0-1zm-10.6-2.6c-3.5 0-6.4-2.8-6.4-6.4 0-3.5 2.8-6.4 6.4-6.4 3.5 0 6.4 2.8 6.4 6.4-.1 3.6-2.9 6.4-6.4 6.4z"/>
    </symbol>
    <symbol id="icon-info" viewBox="0 0 32 32">
      <path d="M16.067 11.156c.883 0 1.6-.716 1.6-1.6 0-.883-.717-1.597-1.6-1.597s-1.6.713-1.6 1.597c0 .883.717 1.6 1.6 1.6zM17.153 13.29v-1.067h-3.2v1.066h1.067v9.062h-1.066v1.066h4.265v-1.066h-1.067z"/><path d="M16 2.672C8.64 2.672 2.672 8.64 2.672 16c0 7.362 5.968 13.328 13.328 13.328S29.328 23.362 29.328 16C29.328 8.64 23.36 2.672 16 2.672zm0 25.59c-6.76 0-12.262-5.5-12.262-12.262S9.238 3.738 16 3.738c6.76 0 12.262 5.5 12.262 12.262S22.762 28.262 16 28.262z"/>
    </symbol>
    <symbol id="icon-left" viewBox="0 0 24.5 48.5">
      <style>.st0{fill-rule:evenodd;clip-rule:evenodd;fill:#2AACE3;}</style><path id="XMLID_78_" class="st0" d="M0 24.2l.3-.3 24.2 24.2-.3.3L0 24.2z"/><path id="XMLID_76_" class="st0" d="M.3 24.5l-.3-.3L24.2 0l.3.3L.3 24.5z"/>
    </symbol>
    <symbol id="icon-like2" viewBox="0 0 27 32">
      <path d="M27.275 15.638c0-1.288-1.02-2.282-2.374-2.282h-8.535c.545-1.265 1.524-3.92 1.524-6.66 0-3.127-1.57-3.783-2.887-3.783-.816 0-1.996.62-1.996 1.737 0 .472-.075 4.67-2.64 6.822-2.73 2.292-3.508 2.89-5.004 2.89-1.746 0-4.847.04-4.847.04L0 14.407v12.206h5.71c.372 0 1.484.496 2.467.932 1.622.722 3.46 1.54 4.696 1.54l8.25-.002c1.343 0 2.436-1.056 2.436-2.354 0-.53-.19-1.012-.495-1.405.984-.282 1.71-1.18 1.71-2.254 0-.538-.19-1.03-.495-1.428.968-.31 1.677-1.207 1.677-2.277 0-.538-.184-1.03-.485-1.43 1.03-.26 1.8-1.186 1.8-2.296zM24.9 16.962h-1.82v1.05h.476c.746 0 1.353.606 1.353 1.352s-.61 1.353-1.354 1.353H22.03v1.05h.394c.72 0 1.304.584 1.304 1.304s-.585 1.306-1.304 1.306H20.98v1.05h.144c.764 0 1.387.585 1.387 1.304 0 .72-.622 1.305-1.386 1.305h-1.34v.003h-6.91c-1.014 0-2.82-.804-4.27-1.45-1.425-.634-2.326-1.023-2.892-1.023H1.05v-10.12c.954-.012 3.012-.033 4.314-.033 1.94 0 2.96-.854 5.68-3.136 2.867-2.406 3.013-6.774 3.013-7.626 0-.428.657-.688.947-.688.55 0 1.837 0 1.837 2.735 0 3.456-1.744 6.91-1.76 6.945l-.39.763h6.425c.018.013.03 0 .03 0h3.757c.767 0 1.325.532 1.325 1.233 0 .73-.594 1.324-1.325 1.324z"/>
    </symbol>
    <symbol id="icon-line-1" viewBox="0 0 18.2 51">
      <style>.st0{fill-rule:evenodd;clip-rule:evenodd;fill:none;stroke:#FFFFFF;stroke-miterlimit:10;}</style><path id="XMLID_77_" class="st0" d="M6.2 0s-18.6 35.9 12 51"/>
    </symbol>
    <symbol id="icon-line-2" viewBox="0 0 32.6 35.5">
      <style>.st0{fill-rule:evenodd;clip-rule:evenodd;fill:none;stroke:#FFFFFF;stroke-miterlimit:10;}</style><path id="XMLID_134_" class="st0" d="M.5 0s2.4 31.4 32 35"/>
    </symbol>
    <symbol id="icon-line-3" viewBox="0 0 26.7 39.5">
      <style>.st0{fill-rule:evenodd;clip-rule:evenodd;fill:none;stroke:#313975;stroke-miterlimit:10;}</style><path id="XMLID_135_" class="st0" d="M26.5.5S-.7 8 .5 39.5"/>
    </symbol>
    <symbol id="icon-line-4" viewBox="0 0 63.5 44.6">
      <style>.st0{fill-rule:evenodd;clip-rule:evenodd;fill:none;stroke:#262735;stroke-miterlimit:10;}</style><path class="st0" d="M63.1.1s-10.3 38.7-63 44"/>
    </symbol>
    <symbol id="icon-line-5" viewBox="0 0 13.3 45.6">
      <style>.st0{fill-rule:evenodd;clip-rule:evenodd;fill:none;stroke:#272864;stroke-miterlimit:10;}</style><path class="st0" d="M5 .3s-14.2 25.3 8 45"/>
    </symbol>
    <symbol id="icon-logo" viewBox="0 0 45 40">
      <style>.st0{fill:#FFFFFF;}</style><path id="XMLID_15_" class="st0" d="M22.5 40c2.4-1.8 4.6-3.8 6.7-5.9 1.1-1.1 2.1-2.2 3-3.4l.3-.3.4.2c3.7 2.5 7.8 4.3 12.1 5.5v-8.5c-2.6-.9-5.1-2.2-7.4-3.7l-.4-.2.2-.4c4.2-7.2 6.8-15 7.5-23.3h-8.2c-.7 6.2-2.5 12.2-5.5 17.7l-.3.6-.5-.5C25.9 12.8 23 6.6 22 0h-8.2c1.1 9.3 5.4 18.1 12.1 24.9l.3.3-.3.3c-1 1.2-2 2.3-3.1 3.4l-.3.3-.3-.3c-7.9-7.8-12.8-18-14-28.9H0c1.2 12.8 6.8 24.8 15.8 34.1 2 2.1 4.3 4.1 6.7 5.9z"/>
    </symbol>
    <symbol id="icon-look" viewBox="0 0 32 32">
      <path d="M16 6.404c-5.847 0-10.404 3.66-15.994 9.593 4.816 5.073 8.857 9.6 15.994 9.6s12.382-5.73 15.994-9.492c-3.697-4.407-8.943-9.7-15.994-9.7zm0 18.126c-6.336 0-10.16-3.93-14.524-8.532C6.668 10.584 10.796 7.47 16 7.47c6.16 0 10.975 4.444 14.558 8.592-3.523 3.674-8.293 8.47-14.558 8.47z"/><path d="M16 9.603c-3.528 0-6.398 2.87-6.398 6.397s2.87 6.397 6.398 6.397 6.398-2.87 6.398-6.397S19.528 9.603 16 9.603zm0 11.728c-2.94 0-5.33-2.39-5.33-5.33s2.39-5.33 5.33-5.33 5.33 2.39 5.33 5.33-2.39 5.33-5.33 5.33z"/><path d="M16 12.268c-2.058 0-3.732 1.674-3.732 3.732s1.674 3.732 3.732 3.732c2.058 0 3.732-1.674 3.732-3.732S18.058 12.268 16 12.268zm0 6.398c-1.47 0-2.666-1.196-2.666-2.666S14.53 13.334 16 13.334 18.666 14.53 18.666 16 17.47 18.666 16 18.666z"/>
    </symbol>
    <symbol id="icon-mailopen" viewBox="0 0 32 32">
      <path d="M29.23 13.342L17.633 1.747C17.198 1.31 16.618 1.07 16 1.07s-1.196.24-1.632.677L11.84 4.275H8.005V8.11l-5.332 5.33v17.49H29.33V13.443l-.1-.1zm-1.105.405l-4.13 4.13V9.618l4.13 4.128zM15.12 2.5c.47-.47 1.29-.47 1.76 0l1.774 1.774h-5.307L15.12 2.5zm4.6 2.84l3.21 3.212v10.39l-2.47 2.47-2.828-2.83c-.436-.436-1.016-.677-1.633-.677s-1.198.24-1.634.677l-2.87 2.87-2.427-2.426V5.34h10.648zm-15.34 7.9l3.624-3.624v8.343l-4.172-4.173.548-.548zm-.642 2.818v-.856l7.003 7.003-.078.08-6.924 6.922v-13.15zm.85 13.806l.574-.573h.002l9.957-9.955c.47-.47 1.29-.47 1.76 0l10.53 10.53H4.59zM28.263 15.36v13.848l-7.046-7.043 7.046-7.046v.24z"/><path d="M12.268 8.54h7.464v1.065h-7.464V8.54zM12.268 14.937h7.464v1.066h-7.464v-1.066zM12.268 11.738h5.33v1.066h-5.33v-1.066z"/>
    </symbol>
    <symbol id="icon-marker" viewBox="0 0 32 32">
      <path d="M16 1.072c5.292 0 9.597 4.305 9.597 9.597 0 1.682-.446 3.34-1.29 4.798L16 29.862 7.692 15.467c-.843-1.456-1.29-3.115-1.29-4.798C6.403 5.376 10.71 1.07 16 1.07zM16 14.4c2.06 0 3.732-1.674 3.732-3.73s-1.674-3.732-3.73-3.732c-2.06 0-3.733 1.674-3.733 3.73S13.942 14.4 16 14.4zM16 .006C10.113.006 5.34 4.78 5.34 10.67c0 1.944.523 3.76 1.432 5.33L16 31.996 25.23 16c.91-1.57 1.432-3.386 1.432-5.33C26.662 4.78 21.888.005 16 .005zm0 13.328c-1.47 0-2.665-1.193-2.665-2.665S14.53 8.003 16 8.003s2.666 1.194 2.666 2.665c0 1.47-1.193 2.664-2.665 2.664z"/>
    </symbol>
    <symbol id="icon-menu" viewBox="0 0 32 32">
      <path d="M3.205 6.937v4.265h25.59V6.937H3.205zm24.524 3.2H4.27V8.002H27.73v2.133zM3.205 18.133h25.59v-4.265H3.205v4.265zm1.066-3.2H27.73v2.134H4.27v-2.133zM3.205 25.063h25.59v-4.265H3.205v4.265zm1.066-3.2H27.73v2.134H4.27v-2.133z"/>
    </symbol>
    <symbol id="icon-next" viewBox="0 0 477.175 477.175">
      <path d="M360.73 229.075l-225.1-225.1c-5.3-5.3-13.8-5.3-19.1 0s-5.3 13.8 0 19.1l215.5 215.5-215.5 215.5c-5.3 5.3-5.3 13.8 0 19.1 2.6 2.6 6.1 4 9.5 4 3.4 0 6.9-1.3 9.5-4l225.1-225.1c5.3-5.2 5.3-13.8.1-19z"/>
    </symbol>
    <symbol id="icon-note2" viewBox="0 0 25 32">
      <path d="M6.294 14.164h12.588v1.05H6.294v-1.05zM6.294 18.36h12.588v1.05H6.294v-1.05zM6.294 22.557h8.392v1.05H6.294v-1.05z"/><path d="M15.688 3.674c-.25-1.488-1.54-2.623-3.1-2.623s-2.85 1.136-3.1 2.624h-9.49V30.95h25.177V3.673h-9.488zM10.49 6.082V4.198c0-1.157.94-2.098 2.098-2.098s2.098.94 2.098 2.098v1.884l.53.302c1.03.586 1.82 1.477 2.274 2.535H7.687C8.14 7.86 8.93 6.97 9.96 6.383l.53-.302zM24.128 29.9H1.05V4.723h8.392v.75c-1.638.93-2.824 2.565-3.147 4.495h12.588c-.322-1.93-1.51-3.563-3.147-4.496v-.75h8.392V29.9z"/>
    </symbol>
    <symbol id="icon-notebook" viewBox="0 0 32 32">
      <path d="M16 3.205H7.47c-2.55 0-4.265 1.714-4.265 4.265v17.733c0 .842.314 3.592 4.357 3.592h21.233V3.205H16zM14.934 4.27v10.2l-2.61-2.377-2.9 2.44V4.273h5.51zm-7.464 0h.887v12.553l3.938-3.313L16 16.884V4.27h11.73v17.594H7.47c-1.356 0-2.456.405-3.198 1.113V7.47c0-1.944 1.256-3.2 3.2-3.2zm.092 23.46c-2.444 0-3.15-1.11-3.27-2.17.003-1.647 1.19-2.63 3.178-2.63h20.26v4.8H7.56z"/>
    </symbol>
    <symbol id="icon-pen" viewBox="0 0 32 32">
      <path d="M30.77 5.802l-4.25-4.25-1.04 1.04-1.456-1.455c-.208-.208-.546-.208-.754 0l-8.638 8.64c-.208.207-.208.545 0 .753.104.104.24.156.377.156s.272-.052.376-.156l8.26-8.262 1.08 1.078-18.32 18.318L7.643 22.9c-.52-.258-1.086-.39-1.652-.39-.957 0-1.914.366-2.644 1.096-.075.074-.147.154-.216.238-.034.04-.067.082-.098.123-.038.047-.073.096-.107.146-.026.036-.052.072-.076.108-1.55 2.332-1.62 6.79-1.62 6.79s.16.008.443.008c1.28 0 5.01-.175 6.96-2.126 1.163-1.163 1.397-2.9.707-4.297l1.32 1.32L30.77 5.8zM7.88 28.14c-1.19 1.19-3.28 1.6-4.768 1.74l2.427-2.427-.755-.754-2.325 2.324c.19-1.422.566-3.146 1.28-4.217l.03-.043.026-.037c.023-.033.047-.068.088-.12.018-.023.035-.047.067-.084.048-.056.096-.11.15-.163.504-.505 1.175-.783 1.89-.783s1.384.278 1.89.783c1.04 1.042 1.04 2.737 0 3.78zM29.263 5.8l-6.324 6.324-2.744-2.743L26.52 3.06 29.264 5.8zm-9.822 4.334l2.744 2.743-11.528 11.527-2.744-2.743 11.528-11.528z"/>
    </symbol>
    <symbol id="icon-phone" viewBox="0 0 32 32">
      <path d="M23.086 1.606H8.913c-.797 0-1.444.647-1.444 1.444v25.9c0 .8.646 1.445 1.443 1.445h14.173c.797 0 1.444-.646 1.444-1.444V3.05c0-.797-.647-1.444-1.444-1.444zm.378 27.345c0 .21-.17.378-.377.378H8.914c-.208 0-.377-.17-.377-.377V24h14.928v4.95zm0-6.016H8.536V5.892h14.928v17.042zm0-18.108H8.536V3.05c0-.208.17-.378.377-.378h14.173c.208 0 .377.17.377.378v1.776z"/><path d="M14.4 26.13h3.2v1.065h-3.2V26.13z"/>
    </symbol>
    <symbol id="icon-piggy" viewBox="0 0 30 32">
      <path d="M27.787 14.933H27.2c-.8-2.08-2.4-3.84-4.533-5.12 0-2.827.267-3.467.853-5.28-2.187.32-4.373 1.653-5.493 3.573-.747-.16-1.493-.213-2.24-.267.107-.428.213-.908.213-1.44 0-2.668-2.133-4.8-4.8-4.8S6.4 3.73 6.4 6.4c0 1.332.533 2.506 1.44 3.412-2.08 1.227-3.68 2.933-4.533 4.96-1.44-.533-2.24-1.333-2.24-2.347 0-1.12.907-2.133 1.707-2.4l-.32-1.013C1.12 9.385 0 10.88 0 12.32c0 .852.374 2.452 2.934 3.412-.213.693-.267 1.387-.267 2.133 0 2.667 1.333 5.12 3.467 6.933l-.64 1.867c-.427 1.28.213 2.613 1.493 3.04l1.493.533c.267.107.533.16.8.16 1.013 0 1.92-.64 2.293-1.6L12 27.57c1.067.214 2.133.374 3.307.374.747 0 1.493-.053 2.187-.16l.64 1.333c.427.853 1.28 1.333 2.187 1.333.374 0 .694-.053 1.068-.267l1.387-.693c1.173-.587 1.707-2.027 1.12-3.2l-.373-.8c1.44-.96 2.56-2.187 3.36-3.627h1.067c1.44 0 2.612-1.173 2.612-2.613v-1.707c-.16-1.44-1.333-2.613-2.773-2.613zM7.467 6.4c0-2.08 1.653-3.733 3.733-3.733S14.933 4.32 14.933 6.4c0 .533-.107 1.013-.32 1.493-2.133.053-4.107.587-5.813 1.387C8 8.587 7.467 7.573 7.467 6.4zm21.866 12.853c0 .853-.693 1.547-1.547 1.547H26.08l-.32.533c-.694 1.227-1.708 2.347-2.988 3.253l-.747.533.427.8.373.8c.32.64.053 1.492-.64 1.812l-1.387.64c-.16.107-.373.16-.587.16-.532 0-.96-.267-1.226-.747l-.64-1.333-.32-.693-.8.106c-.693.107-1.387.16-2.027.16-1.013 0-2.08-.107-3.093-.32l-.907-.213-.267.907-.427 1.227c-.213.533-.693.907-1.28.907-.16 0-.32 0-.427-.053l-1.493-.532c-.693-.267-1.067-1.013-.8-1.707l.64-1.92.267-.692-.587-.48c-2.027-1.653-3.093-3.787-3.093-6.08 0-4.907 5.173-8.96 11.467-8.96.853 0 1.76.107 2.613.213l.747.16.373-.64c.64-1.12 1.76-2.026 2.987-2.56-.213.908-.32 1.92-.373 3.734v.587l.533.32c1.92 1.174 3.413 2.774 4.107 4.588l.267.693h1.334c.853 0 1.547.694 1.547 1.548v1.707z"/><path d="M23.467 15.733c0 .736-.597 1.333-1.333 1.333S20.8 16.47 20.8 15.733 21.4 14.4 22.135 14.4s1.333.597 1.333 1.333z"/>
    </symbol>
    <symbol id="icon-plus" viewBox="0 0 32 32">
      <path d="M16 2.672C8.638 2.672 2.672 8.638 2.672 16S8.638 29.328 16 29.328c7.362 0 13.328-5.966 13.328-13.328S23.362 2.672 16 2.672zm0 25.59c-6.76 0-12.262-5.5-12.262-12.262S9.238 3.738 16 3.738c6.76 0 12.262 5.5 12.262 12.262S22.762 28.262 16 28.262z"/><path d="M16.533 8.003h-1.066v7.464H8.04v1.066h7.427v7.428h1.066v-7.427h7.464v-1.066h-7.464z"/>
    </symbol>
    <symbol id="icon-rarrows" viewBox="-628 389.9 22.1 22.1">
      <style>.st0{fill:#010002;}</style><path class="st0" d="M-616.5 401l-6.7 6.7c-.8.8-.8 2.1 0 2.9l.7.7c.8.8 2.1.8 2.9 0l8.8-8.8c.4-.4.6-1 .6-1.6 0-.6-.2-1.2-.6-1.6l-8.8-8.8c-.8-.8-2.1-.8-2.9 0l-.7.7c-.8.8-.8 2.1 0 2.9l6.7 6.9z"/>
    </symbol>
    <symbol id="icon-refresh" viewBox="0 0 32 32">
      <path d="M27.73 18.664c0 6.467-5.262 11.73-11.73 11.73S4.27 25.13 4.27 18.663c0-6.452 5.238-11.703 11.685-11.728v5.333l10.13-5.866L15.954.54v5.33c-7.047.024-12.75 5.74-12.75 12.794 0 7.065 5.726 12.795 12.794 12.795 7.065 0 12.794-5.73 12.794-12.796h-1.066zM17.02 2.39l6.935 4.015-6.935 4.016V2.39z"/>
    </symbol>
    <symbol id="icon-ribbon" viewBox="0 0 32 32">
      <path d="M5.87 3.205v25.59L16 21.33l10.13 7.465V3.205H5.87zm19.193 23.48L16 20.007l-9.064 6.678V4.27h18.127v22.415z"/><path d="M10.668 9.602H21.33v1.066H10.67V9.602zM10.668 13.867H21.33v1.066H10.67v-1.066z"/>
    </symbol>
    <symbol id="icon-right" viewBox="0 0 24.5 48.5">
      <style>.st0{fill-rule:evenodd;clip-rule:evenodd;fill:#2AACE3;}</style><path id="XMLID_78_" class="st0" d="M24.5 24.2l-.3.3L0 .3.3 0l24.2 24.2z"/><path id="XMLID_76_" class="st0" d="M24.2 23.9l.3.3L.3 48.5l-.3-.3 24.2-24.3z"/>
    </symbol>
    <symbol id="icon-science" viewBox="0 0 32 32">
      <path d="M24.59 16c2.616-2.69 3.787-5.307 2.805-6.922-.39-.644-1.292-1.41-3.363-1.41-1.136 0-2.463.23-3.895.653-.95-3.436-2.536-5.648-4.366-5.648-1.806 0-3.375 2.16-4.33 5.525-1.266-.345-2.44-.53-3.46-.53-2.072 0-2.973.767-3.365 1.41-.787 1.295-.26 3.227 1.485 5.44.39.495.833.99 1.317 1.487-2.615 2.688-3.783 5.304-2.802 6.92.39.642 1.293 1.41 3.363 1.41 1.02 0 2.196-.186 3.462-.53.954 3.366 2.523 5.524 4.33 5.524 1.83 0 3.414-2.212 4.366-5.648 1.432.424 2.76.654 3.896.654 2.07 0 2.972-.767 3.363-1.41.98-1.616-.19-4.235-2.806-6.924zm-.558-7.267c.87 0 2 .156 2.452.9.65 1.07-.33 3.234-2.655 5.62-.85-.793-1.817-1.586-2.888-2.353-.116-1.263-.3-2.45-.545-3.54 1.353-.404 2.598-.627 3.636-.627zM18.21 19.627c-.73.444-1.468.852-2.204 1.225-.735-.373-1.473-.78-2.203-1.225-.768-.467-1.503-.957-2.2-1.46-.046-.7-.076-1.418-.076-2.167 0-.75.03-1.47.075-2.17.683-.493 1.416-.98 2.2-1.457.73-.444 1.468-.852 2.204-1.226.736.373 1.474.782 2.205 1.226.603.366 1.168.74 1.71 1.118.062.803.096 1.64.096 2.51s-.034 1.707-.095 2.508c-.542.378-1.107.753-1.71 1.12zm1.575.265c-.105.86-.245 1.665-.41 2.416-.706-.25-1.432-.543-2.17-.877.52-.28 1.04-.576 1.558-.89.35-.213.69-.43 1.02-.648zm-4.98 1.538c-.89.404-1.764.747-2.604 1.025-.2-.89-.365-1.86-.48-2.907.495.338 1.002.67 1.528.99.518.316 1.038.613 1.557.892zm-4.32-4.11c-.545-.434-1.063-.875-1.54-1.32.47-.437.987-.88 1.54-1.32-.015.434-.024.874-.024 1.32s.01.886.026 1.32zm1.236-4.874c.116-1.044.28-2.013.48-2.9.84.278 1.715.62 2.604 1.025-.52.28-1.04.578-1.558.893-.527.32-1.036.65-1.526.984zm5.487-1.876c.737-.334 1.463-.628 2.168-.877.165.75.305 1.554.41 2.415-.333-.22-.672-.434-1.02-.646-.518-.315-1.04-.612-1.558-.892zm3.832 3.734c.74.565 1.422 1.134 2.025 1.696-.603.562-1.285 1.13-2.026 1.696.026-.554.042-1.12.042-1.696s-.016-1.14-.043-1.696zM15.77 3.738c1.216 0 2.51 1.852 3.348 4.91-1.006.35-2.052.79-3.112 1.306-1.212-.59-2.404-1.08-3.54-1.45.837-2.97 2.11-4.766 3.306-4.766zM5.528 9.632c.45-.743 1.583-.9 2.453-.9.924 0 2.013.178 3.195.502-.283 1.228-.49 2.583-.607 4.033-.874.653-1.674 1.32-2.39 1.99-.456-.468-.874-.935-1.24-1.4-1.428-1.81-1.942-3.35-1.41-4.225zM7.98 23.267c-.87 0-2.002-.156-2.453-.9-.65-1.07.328-3.234 2.654-5.62.724.672 1.526 1.335 2.388 1.978.116 1.453.324 2.81.607 4.04-1.182.324-2.27.5-3.195.5zm7.79 4.995c-1.194 0-2.467-1.795-3.305-4.765 1.136-.37 2.33-.86 3.54-1.45 1.06.516 2.106.955 3.112 1.306-.836 3.057-2.132 4.91-3.347 4.91zm10.714-5.893c-.45.74-1.582.898-2.452.898-1.038 0-2.283-.223-3.636-.628.245-1.09.43-2.277.546-3.54 1.07-.768 2.038-1.56 2.887-2.354 2.326 2.388 3.304 4.553 2.654 5.624z"/>
    </symbol>
    <symbol id="icon-star" viewBox="0 0 32 32">
      <path d="M19.38 12.803L16 2.405l-3.38 10.398H1.605L10.53 19.2 7.105 29.595 16 23.147l8.895 6.448L21.47 19.2l8.924-6.397H19.38zm1.077 6.73l2.394 7.262L16 21.83l-6.85 4.965 2.64-8.005-.637-.456-6.228-4.464h8.47l2.607-8.016 2.605 8.016h8.47l-6.863 4.92.245.744z"/>
    </symbol>
    <symbol id="icon-study" viewBox="0 0 32 32">
      <path d="M31.514 11.177L16 3.71.486 11.177l2.186 1.318v11.53h1.066V13.137l3.2 1.93V28.29h18.125V15.07l6.45-3.893zM16 4.893l13.275 6.39-13.267 8.008-13.282-8.008L16 4.892zm7.997 22.33H8.003V15.71l8.005 4.827 7.99-4.823v11.51z"/>
    </symbol>
    <symbol id="icon-ticket" viewBox="0 0 32 32">
      <path d="M24.782 1.606h-7.025L1.607 17.714l12.652 12.68 16.134-16.092V7.206l-5.613-5.6zm4.546 12.253L14.26 28.885 3.115 17.716 18.197 2.67h6.143l4.988 4.977v6.21z"/><path d="M21.867 8c0 1.172.956 2.127 2.133 2.127S26.133 9.173 26.133 8c0-1.175-.956-2.13-2.133-2.13s-2.133.955-2.133 2.13zm3.2 0c0 .584-.48 1.06-1.067 1.06S22.934 8.586 22.934 8c0-.587.478-1.064 1.066-1.064s1.066.477 1.066 1.063z"/>
    </symbol>
    <symbol id="icon-topanchor" viewBox="0 0 29.8 45.5">
      <style>.st0{fill:none;}</style><path id="XMLID_2_" class="st0" d="M29.8 14.9l-1.2 1.2L15.7 3.2v42.3H14V3.2L1.2 16.1 0 14.9 14.9 0l14.9 14.9z"/>
    </symbol>
    <symbol id="icon-toplarr" viewBox="0 0 31.494 31.494">
      <path d="M10.273 5.01c.444-.445 1.143-.445 1.587 0 .43.428.43 1.142 0 1.57l-8.047 8.047h26.554c.62 0 1.127.492 1.127 1.11 0 .62-.508 1.128-1.127 1.128H3.813l8.047 8.032c.43.444.43 1.16 0 1.587-.444.444-1.143.444-1.587 0L.32 16.532c-.428-.43-.428-1.143 0-1.57l9.953-9.953z" fill="#1E201D"/>
    </symbol>
    <symbol id="icon-toprarr" viewBox="0 0 31.5 31.5">
      <style>.st0{fill:#1E201D;}</style><path class="st0" d="M21.2 26.5c-.4.4-1.1.4-1.6 0-.4-.4-.4-1.1 0-1.6l8-8H1.1c-.6 0-1.1-.5-1.1-1.1 0-.6.5-1.1 1.1-1.1h26.6l-8-8c-.4-.4-.4-1.2 0-1.6.4-.4 1.1-.4 1.6 0l10 10c.4.4.4 1.1 0 1.6l-10.1 9.8z"/>
    </symbol>
    <symbol id="icon-up" viewBox="0 0 26 32">
      <path d="M26.22 16c0-7.243-5.87-13.113-13.112-13.113S-.005 8.757-.005 16c0 7.242 5.87 13.113 13.113 13.113S26.22 23.243 26.22 16zM1.046 16c0-6.652 5.412-12.064 12.064-12.064S25.172 9.348 25.172 16s-5.41 12.064-12.064 12.064C6.456 28.064 1.044 22.652 1.044 16z"/><path d="M18.746 15.204l.742-.742-6.38-6.38-6.377 6.38.743.742 5.112-5.112V22.82h1.05V10.09z"/>
    </symbol>
    <symbol id="icon-user" viewBox="0 0 32 32">
      <path d="M16 3.205C8.933 3.205 3.205 8.933 3.205 16S8.933 28.795 16 28.795 28.795 23.067 28.795 16 23.067 3.205 16 3.205zm0 1.066c6.467 0 11.73 5.262 11.73 11.73 0 2.845-1.02 5.457-2.712 7.49-1.17-.488-3.93-1.446-5.638-1.95-.146-.047-.17-.054-.17-.66 0-.502.207-1.006.408-1.433.218-.464.476-1.244.57-1.944.258-.3.61-.895.838-2.026.2-.997.106-1.36-.026-1.7-.014-.036-.028-.07-.04-.107-.05-.234.02-1.448.19-2.39.118-.648-.03-2.023-.92-3.16-.563-.72-1.64-1.6-3.604-1.724h-1.078c-1.932.123-3.008 1.005-3.57 1.724-.89 1.137-1.038 2.513-.92 3.16.172.942.24 2.156.19 2.386-.01.04-.024.075-.04.11-.13.342-.224.704-.024 1.7.226 1.132.58 1.726.84 2.027.09.7.35 1.48.568 1.944.16.34.234.8.234 1.454 0 .608-.023.615-.16.658-1.766.522-4.578 1.538-5.627 1.997-1.726-2.042-2.77-4.68-2.77-7.555C4.27 9.533 9.533 4.27 16 4.27zM7.81 24.387c1.202-.49 3.595-1.344 5.168-1.808.914-.288.914-1.058.914-1.677 0-.512-.035-1.268-.335-1.907-.206-.438-.442-1.19-.494-1.776-.01-.137-.076-.265-.18-.355-.15-.132-.458-.616-.654-1.593-.156-.774-.09-.943-.027-1.107.027-.07.053-.14.074-.216.128-.468-.015-2.005-.17-2.858-.068-.372.018-1.425.71-2.312.623-.795 1.564-1.238 2.765-1.315h1.01c1.234.077 2.175.52 2.798 1.315.694.887.778 1.94.71 2.312-.154.852-.298 2.39-.17 2.857.022.078.047.147.074.217.064.163.13.333-.025 1.106-.197.977-.505 1.46-.656 1.593-.103.09-.168.218-.18.355-.05.588-.286 1.338-.492 1.776-.236.502-.508 1.17-.508 1.886 0 .62 0 1.39.924 1.68 1.505.445 3.91 1.27 5.18 1.77-2.12 2.1-5.035 3.4-8.248 3.4-3.183 0-6.073-1.277-8.188-3.342z"/>
    </symbol>
    <symbol id="icon-users" viewBox="0 0 28 32">
      <path d="M0 21.997v2.12s.178.813.822.813h7.57v1.093c0 .37.22 1.006 1.018 1.006H27.31c.796 0 1.017-.635 1.017-1.007V23.4s-.2-1.198-1.017-1.548c-1.032-.452-3.8-1.452-5.537-1.965-.133-.043-.156-.05-.156-.646 0-.64.074-1.096.23-1.43.215-.456.47-1.224.56-1.912.255-.296.602-.88.825-1.993.196-.98.104-1.338-.026-1.673-.014-.035-.03-.07-.04-.11-.047-.225.02-1.42.19-2.348.115-.636-.03-1.988-.907-3.108-.553-.707-1.612-1.576-3.513-1.695h-1.06c-1.933.12-2.99.99-3.544 1.696-.876 1.12-1.02 2.472-.905 3.108.168.927.236 2.122.186 2.352-.01.035-.024.07-.037.105-.13.336-.22.693-.026 1.674.223 1.113.57 1.697.826 1.993.09.688.345 1.456.56 1.912.197.42.4.915.4 1.408 0 .597-.024.604-.167.65-.358.104-.763.23-1.19.367-1.003-.373-2.266-.81-3.182-1.08-.11-.034-.127-.04-.127-.522 0-.52.06-.887.186-1.157.174-.37.38-.99.453-1.546.206-.24.487-.71.667-1.61.16-.794.084-1.082-.02-1.353-.012-.03-.024-.057-.032-.09-.038-.18.015-1.147.15-1.897.094-.514-.022-1.607-.73-2.513-.447-.57-1.303-1.273-2.838-1.37h-.856c-1.562.096-2.417.8-2.864 1.37-.708.906-.826 2-.73 2.513.134.75.19 1.716.15 1.902-.008.028-.02.056-.03.085-.107.27-.18.56-.022 1.352.18.9.46 1.37.667 1.61.074.557.28 1.176.452 1.546.16.34.323.74.323 1.14 0 .482-.018.487-.134.524-1.36.4-3.554 1.163-4.483 1.552-.66.283-.976.845-.976 1.304zM9.44 23.4c0-.155.157-.47.575-.648 1.103-.46 3.806-1.393 5.448-1.877.918-.288.918-1.078.918-1.655 0-.7-.252-1.33-.5-1.856-.17-.366-.39-1.025-.468-1.603l-.04-.31-.206-.236c-.113-.13-.397-.54-.59-1.515-.153-.762-.086-.935-.027-1.088v-.002l.01-.026c.02-.054.04-.108.055-.16l.01-.04.01-.038c.106-.5-.034-1.945-.18-2.758-.068-.366.016-1.402.7-2.275.606-.776 1.532-1.21 2.75-1.294h.994c1.492.102 2.302.758 2.72 1.293.683.873.766 1.91.7 2.273-.144.793-.287 2.26-.18 2.755l.004.023.006.022c.022.085.05.16.08.237.054.14.122.317-.03 1.076-.195.975-.478 1.383-.59 1.513l-.207.24-.04.31c-.077.58-.296 1.236-.47 1.602-.224.48-.33 1.077-.33 1.878 0 .576 0 1.364.89 1.646 1.69.5 4.44 1.49 5.433 1.926.296.127.39.27.39.587v2.578H9.445l-.004-2.58zm-8.39-1.403c0-.04.066-.222.34-.34.9-.377 3.066-1.126 4.365-1.51.886-.282.886-1.064.886-1.53 0-.604-.213-1.14-.423-1.587-.136-.29-.304-.81-.36-1.237l-.042-.31-.204-.237c-.063-.073-.28-.372-.432-1.133-.112-.557-.067-.673-.03-.766l.005-.014.004-.014c.022-.055.036-.098.048-.14l.012-.04.008-.04c.103-.483-.045-1.762-.144-2.308-.045-.257.023-1.034.528-1.68.453-.578 1.15-.904 2.07-.968h.79c1.126.08 1.733.57 2.045.968.504.645.573 1.424.527 1.68-.106.577-.244 1.84-.146 2.304l.005.022.004.022c.02.074.043.14.07.207.035.092.08.21-.03.766-.154.762-.37 1.06-.434 1.132l-.204.237-.04.31c-.058.428-.226.947-.364 1.238-.195.417-.286.926-.286 1.603 0 .468 0 1.25.86 1.523.542.16 1.218.383 1.886.616-1.103.378-2.155.76-2.763 1.015-.82.35-1.21 1.045-1.21 1.613v.48H1.047v-1.883z"/>
    </symbol>
    <symbol id="icon-wallet" viewBox="0 0 32 32">
      <path d="M27.993 8.536H24.53V5.61c0-1.328-1.076-2.405-2.405-2.405H5.61c-1.327 0-2.404 1.077-2.404 2.405v22.383c0 .443.36.802.802.802h23.986c.443 0 .802-.36.802-.802V9.338c0-.443-.36-.802-.802-.802zM5.61 4.27h16.514c.738 0 1.34.602 1.34 1.34v2.926H4.27V5.61c0-.738.602-1.34 1.34-1.34zm22.12 23.46H4.27V9.602H27.73V27.73z"/><path d="M20.265 18.666c0 1.472 1.194 2.665 2.666 2.665s2.666-1.192 2.666-2.664c0-1.472-1.193-2.666-2.665-2.666s-2.665 1.193-2.665 2.666zm4.265 0c0 .88-.717 1.598-1.6 1.598s-1.6-.717-1.6-1.598c0-.882.72-1.6 1.6-1.6s1.6.718 1.6 1.6z"/>
    </symbol></svg>